<?xml version="1.0" encoding="utf-8"?>
<!-- Generator: Adobe Illustrator 23.0.2, SVG Export Plug-In . SVG Version: 6.00 Build 0)  -->
<svg version="1.1" id="Layer_1" xmlns="http://www.w3.org/2000/svg" xmlns:xlink="http://www.w3.org/1999/xlink" x="0px" y="0px"
	 viewBox="0 0 486.873 644.2744" enable-background="new 0 0 486.873 644.2744" xml:space="preserve">
<g>
	<path d="M89.6875,520.1889c4.7011-4.3652,9.8857-7.561,15.8388-7.5805c4.1426-0.0079,8.3555,1.6201,12.5254,4.9834
		c1.711-0.9107,3.5049-1.8306,5.3858-2.7706c11.9951-5.979,27.1142-12.6879,40.1123-21.3842
		c8.6025-5.7285,14.79-14.8848,21.4082-23.1382c5.5596-6.9058,11.665-13.3496,20.2041-15.8076
		c-14.6709-9.8516-27.4746-18.9502-35.6104-25.7437c-32.9863-27.5473-50.6299,43.9028-82.083,55.0938
		c-31.4511,11.1909-68.7851,29.3335-68.7851,37.8779h63.4648v0.1699h5.8027C88.5263,521.3056,89.1035,520.7338,89.6875,520.1889z"/>
	<path d="M130.2607,517.0361c-2.9131,1.4-5.6738,2.7681-8.2197,4.0972c5.3828,4.8466,10.5732,9.0498,15.5576,12.6821h33.1084
		c8.415-2.77,14.8291-7.4624,20.168-12.5972c8.4941-8.1514,13.7217-17.3491,19.9277-21.7617
		c1.8037-1.249,3.8545-2.1211,6.1152-2.1211c2.0557-0.0044,4.1123,0.7388,6.0372,2.084c1.9375,1.3472,3.8281,3.2856,5.8359,5.9082
		c9.7558,12.7246,18.7148,21.7578,26.9092,28.4878h2.9209c8.5205-10.1738,17.0957-20.8443,26.0322-28.3272
		c6.7832-5.6547,13.9023-9.6108,21.6035-9.6308c5.4317-0.0137,10.9365,2.0688,16.2188,6.499
		c3.8906,3.2495,8.7099,7.1157,14.1757,11.4009l12.461-35.4014l-4.5137-18.0434c-0.5322-0.6197-1.0498-1.2388-1.5342-1.8589
		c-6.4326-8.2954-12.5332-18.7749-18.6308-28.6104c-6.0811-9.8291-12.2012-19.0122-18.2686-24.5327
		c-4.0586-3.7041-7.9258-5.6602-11.623-5.6494c-3.9659,0.0024-8.4639,2.1733-13.7393,8.4795
		c-1.6064,1.9009-3.7881,5.8794-6.7109,10.6543c-2.9453,4.7861-6.7178,10.4287-11.8741,15.9492
		c-10.2939,11.0552-26.2412,21.5454-51.6386,23.7827c-9.0098,0.7857-15.2393,6.855-21.7266,14.9072
		c-6.4521,7.9771-12.8408,17.6553-22.5234,24.1587C154.5283,505.4809,141.3164,511.6503,130.2607,517.0361z"/>
	<path d="M254.209,539.0273c-8.9747-7.1255-18.8223-16.8169-29.3897-30.6606c-1.8008-2.3614-3.3906-3.9263-4.7119-4.8399
		c-1.334-0.9155-2.3174-1.186-3.1895-1.1904c-0.9521,0-1.9834,0.3486-3.2744,1.2363c-1.2773,0.876-2.7226,2.2715-4.2881,4.0332
		c-3.1455,3.5186-6.7685,8.4522-11.3584,13.4551c-9.1406,10.0151-22.5507,20.3838-44.2119,20.3447
		c-1.6601,0-3.375-0.0679-5.1308-0.1914c25.3174,15.5078,44.8125,17.6846,58.458,25.439c1.1103,0.6343,2.1787,1.3169,3.2041,2.0517
		c5.4668-2.2168,10.9707-4.3173,16.3135-6.2187C235.4619,559.4038,244.8593,549.956,254.209,539.0273z"/>
	<path d="M204.6953,571.0332c-0.0274-0.0162-0.0537-0.0332-0.0811-0.0494c-5.4394-3.1464-12.5517-5.4389-21.125-8.4023
		c-17.1591-5.9312-40.0175-14.7047-67.0263-39.7549c-4.1866-3.8559-7.7207-5.2085-10.9366-5.2168
		c-3.0283-0.0024-6.0673,1.2422-9.2519,3.582c-3.169,2.3272-6.3848,5.711-9.5869,9.6084
		c-6.4268,7.7964-12.7764,17.5728-19.6504,25.0176c-4.5957,4.9453-9.459,8.9702-15.1328,10.4473
		c-11.8965,3.0347-22.9024,4.499-31.6006,6.9448c-8.2149,2.3179-14.0772,5.3335-17.4404,10.9107l175.0312-0.3687
		c0.7285-0.396,1.4648-0.7925,2.2188-1.1904C187.4433,578.6928,195.9267,574.7421,204.6953,571.0332z"/>
	<polygon points="0,584.1264 0.0019,584.1264 0,584.1259 	"/>
	<path d="M298.5996,581.4941l27.4072-37.4946l8.8936-25.2657c-6.0489-4.7275-11.376-8.9897-15.627-12.539
		c-4.6299-3.8477-8.8564-5.3272-13.0166-5.3384c-5.8672-0.022-12.0361,3.1436-18.3955,8.4683
		c-6.3467,5.2988-12.7793,12.624-19.2353,20.3144c-13.001,15.3613-25.7901,32.2583-40.3194,37.5567
		c-13.667,4.8618-28.4834,11.062-40.7637,17.1777c-12.249,6.0517-22.0957,12.2978-25.2519,16.2964
		c-0.917,1.105-1.1406,1.9179-1.1074,2.0488h-2.5v0.0005h131.1992L298.5996,581.4941z"/>
	<polygon points="332.9082,358.2216 333.8408,408.7075 350.9648,436.3173 361.6289,478.9418 336.7373,549.6567 309.1484,587.4008 
		296.251,618.8042 304.2744,644.2744 486.873,644.2744 486.873,1.2309 471.3525,0 428.0556,13.8837 395.3144,36.5776 
		355.3437,30.2656 306.9726,29.2924 265.9736,40.8095 264.5,58.1289 288.0127,68.268 314.9238,69.3969 326.9619,85.062 
		366.6562,102.1782 387.3701,145.8027 387.3701,218.3701 375.3261,270.2895 372.7051,311.645 353.3867,328.6772 	"/>
	<path d="M349.2324,148.6831c0.6855-4.2774-2.2266-8.2984-6.5068-8.9825c-4.2754-0.6845-8.2979,2.2286-8.9825,6.5039
		c-0.6836,4.2784,2.2325,8.2998,6.5079,8.9834C344.5263,155.8725,348.5478,152.9589,349.2324,148.6831z"/>
	<path d="M378.3857,206.1333c2.0918-0.7076,3.2158-2.9771,2.5137-5.0708l-5.5293-16.3819l-0.2139-0.6338
		c-0.4023-1.1904-1.3359-2.1196-2.5293-2.5175l-13.5488-4.5098l5.8848-7.5913l9.247,8.5107
		c0.3496,0.3218,0.7461,0.5547,1.1602,0.729c1.5107,0.6363,3.3174,0.3125,4.4922-0.9619c1.4961-1.626,1.3906-4.1567-0.2344-5.6528
		l-4.2578-3.9195l-8.1924-7.5415c-0.8213-0.7539-1.9336-1.1362-3.043-1.0415c-1.1113,0.0923-2.1464,0.6548-2.8271,1.5357
		l-3.5186,4.539c0.2012-1.6997,0.4229-3.311,0.5987-4.7314c0.5009-2.3457-0.0401-4.9141-1.3409-6.5342l14.3184-14.2881
		l0.9014-0.8994c1.1738-1.1699,1.1767-3.0703,0.0068-4.2427c-0.9726-0.9716-2.4394-1.1264-3.582-0.4882
		c-0.2344,0.1313-0.461,0.2841-0.6612,0.4838l-19.5703,19.5284c-0.3564,0.3549-0.5908,0.7807-0.7314,1.2295
		c-0.7695,0.9746-1.4072,2.1943-1.8076,3.6953c-1.875,7.1826-2.0625,11.7861-0.6192,19.4492
		c1.4825,5.5234,5.3594,5.8286,8.5459,5.562c0.5586-0.0464,1.0586-0.1001,1.5059-0.1802l12.8574,4.2823l5.1045,15.1284
		c0.3574,1.0615,1.1191,1.8706,2.0547,2.3217c0.5361,0.2588,1.1289,0.4019,1.7373,0.4019
		C377.5312,206.3437,377.9619,206.2758,378.3857,206.1333z"/>
	<path d="M160.7236,362.56c11.0449,0,20-8.9551,20-20c0-11.0454-8.9551-20-20-20c-11.0459,0-20,8.9546-20,20
		C140.7236,353.6049,149.6777,362.56,160.7236,362.56z M160.7236,326.3691c8.9248,0,16.1875,7.2646,16.1875,16.1929
		c0,8.9262-7.2627,16.1855-16.1875,16.1855c-8.9287,0-16.1885-7.2593-16.1885-16.1855
		C144.5351,333.6337,151.7949,326.3691,160.7236,326.3691z"/>
</g>
</svg>
